<svg xmlns="http://www.w3.org/2000/svg" enable-background="new 0 0 64 64" viewBox="0 0 64 64" id="robocop"><path fill="#676767" d="M57.3,48.6c-3.1-1.3-6.3-2.5-9.2-4.4c-0.5-0.3-1-0.7-1.5-1c-0.6-0.5-1.8-1.2-1.8-2.1c0-0.8,0-1.7,0-2.5
		c-1.8,3.1-4.8,5.2-8.4,5.9c-1.6,0.3-3.3,0.3-5,0.3c-1.7,0-3.5,0.1-5.1-0.3c-3.2-0.7-5.7-2.7-7.3-5.3c0,0.7,0,1.3,0,2
		c0,0.9-1.2,1.6-1.8,2.1c-3.2,2.4-7,3.9-10.7,5.4C3.3,50,1.8,54,1.5,57.4c0,0,13.3,6.5,30,6.6h1c16.7-0.1,30-6.6,30-6.6
		C62.2,54,60.8,50,57.3,48.6z M32.5,63h-1c-14.2-0.1-26.1-4.9-28.9-6.2c0.3-2,1.2-6,4.5-7.3l0.7-0.3c3.5-1.4,7.1-2.9,10.2-5.2
		l0.3-0.2c0.6-0.4,1.5-1.1,1.8-1.9c1.7,1.8,3.9,3,6.2,3.6c1.2,0.3,2.5,0.3,3.5,0.3l1.8,0h1.2c1.2,0,2.6,0,4-0.3
		c2.8-0.5,5.3-1.9,7.2-3.9c0.2,1,1.2,1.7,1.9,2.2l0.3,0.2c0.6,0.4,1.1,0.8,1.6,1.1c2.7,1.8,5.8,3,8.7,4.2l0.6,0.2
		c3.3,1.3,4.2,5.3,4.4,7.3C58.6,58.1,46.7,62.9,32.5,63z"></path><path fill="#808181" d="M61.4,56.8c-2.8,1.2-14.7,6.1-28.9,6.2h-1c-14.2-0.1-26.1-4.9-28.9-6.2c0.3-2,1.2-6,4.5-7.3l0.7-0.3
		c3.5-1.4,7.1-2.9,10.2-5.2l0.3-0.2c0.6-0.4,1.5-1.1,1.8-1.9c1.7,1.8,3.9,3,6.2,3.6c1.2,0.3,2.5,0.3,3.5,0.3l1.8,0h1.2
		c1.2,0,2.6,0,4-0.3c2.8-0.5,5.3-1.9,7.2-3.9c0.2,1,1.2,1.7,1.9,2.2l0.3,0.2c0.6,0.4,1.1,0.8,1.6,1.1c2.7,1.8,5.8,3,8.7,4.2l0.6,0.2
		C60.2,50.9,61.1,54.8,61.4,56.8z"></path><path fill="#fff" d="M32,62.4c14.2-0.2,29-5.7,29-5.7s0.3-5.8-6.3-7.5c-4-1.1-8.1,0.4-11.7,2.1c-3.3,1.6-6.4,3.7-10.2,3.8
			c-0.3,0-0.5,0-0.8,0c-0.3,0-0.5,0-0.8,0c-3.8-0.2-6.9-2.2-10.2-3.8c-3.6-1.8-7.7-3.2-11.7-2.1C2.7,50.9,3,56.7,3,56.7
			S17.8,62.3,32,62.4z" opacity=".57"></path><path fill="#070808" d="M61,56.7c0,0-3.3,1.2-8.3,2.6c-1.6-1.3-7.7-7.8-8.4-8.6c3.3-1.5,6.9-2.5,10.4-1.5C61.3,50.9,61,56.7,61,56.7z
			" opacity=".11"></path><path fill="#fff" d="M17.1,49.6c-1.2,0.4-2.4,0.7-3.7,1.1c-1.4,0.4-2.7,0.9-4.2,1.1c-0.6,0.1-1.2,0.1-1.8,0.4
			c-0.5,0.2-1,0.6-1.5,1c-0.4,0.3-0.9,0.8-1.4,1c-0.1,0-1,0-1.1,0.1c0.6-1.8,2.2-4.1,5.9-5.1C11.9,48.4,14.5,48.8,17.1,49.6z" opacity=".35"></path><path fill="#acacad" d="M31.6,11.1c-7.9,0.2-13.1,1.2-15,1.6c0,0-0.9,1.9,0,2.7H47l0.3-2.5C47.3,12.9,41.8,11.4,31.6,11.1z
			 M46.1,14.4H17.2c0-0.2,0-0.5,0.1-0.8c2.2-0.5,7.1-1.3,14.3-1.5c7.6,0.2,12.7,1.1,14.6,1.6L46.1,14.4z"></path><path fill="#cdcdcd" d="M46.2,13.7l-0.1,0.7H17.2c0-0.2,0-0.5,0.1-0.8c2.2-0.5,7.1-1.3,14.3-1.5C39.3,12.3,44.3,13.2,46.2,13.7z"></path><path fill="#999" d="M46.4,11.6c-2.2-0.5-7.2-1.3-14.7-1.5c-7.6,0.2-12.7,1.1-14.9,1.5c-0.1-6.2,5.6-8.7,8-9.5
			C27.1,1.4,29.4,1,31.6,1c2.5,0,4.9,0.4,7.4,1.3C43.8,4.1,46.4,7.4,46.4,11.6z"></path><path fill="#b4b4b5" d="M44.2,10.9c0,0-3.8-1-10.8-1.2c-5.5,0.1-9,0.8-10.3,1.1c-0.4,0.1-0.5,0.1-0.5,0.1c0-0.2,0-0.5-0.1-0.7
			c-0.1-3.8,2.6-6.2,6-7.3c3.4-1.1,6.8-1.1,10.2,0.2C42.2,4.3,44.6,7,44.2,10.9z"></path><path fill="#999" d="M48.3,17.8v6.9c0,1-0.5,1.9-1.3,2.4c-0.5,0.3-1.1,0.5-1.7,0.5H18.3c-0.6,0-1.2-0.2-1.7-0.5
			c-0.8-0.5-1.3-1.5-1.3-2.4v-6.9c0-0.8,0.6-1.4,1.4-1.4H47C47.7,16.4,48.3,17,48.3,17.8z"></path><path fill="#cdcdcd" d="M43.9,28.2H19.7c-1.9,0-3.4-1.5-3.4-3.4v-5.5c0-1.1,0.9-2,2-2h26.9c1.1,0,2,0.9,2,2v5.5
			C47.3,26.7,45.8,28.2,43.9,28.2z"></path><path fill="#2b2b2b" d="M43.7,22.9H20c-0.8,0-1.5-0.7-1.5-1.5l0,0c0-0.8,0.7-1.5,1.5-1.5h23.7c0.8,0,1.5,0.7,1.5,1.5l0,0
			C45.1,22.2,44.5,22.9,43.7,22.9z"></path><path fill="#4d4d4d" d="M46.6,29.4c-0.2,3-1.1,6.1-2.4,8.5l-0.1,0.1c-1.7,2.9-4.4,4.8-7.7,5.4c-1.2,0.2-2.5,0.2-3.6,0.2h-1.2
			l-1.8,0c-1,0-2.1,0-3.1-0.3c-2.8-0.6-5-2.3-6.7-4.9c-0.8-1.2-1.4-2.6-1.8-4c-0.5-1.7-0.9-3.4-1-5.1c0.4,0.1,0.8,0.1,1.2,0.1h27.2
			C45.8,29.6,46.2,29.5,46.6,29.4z"></path><path fill="#e8d097" d="M38.5 39.3l-.9-.3c.9-6.7 5.6-8.6 6.4-8.8C44.3 33.5 44 40.5 38.5 39.3zM26 39l-.9.3c-5.4 1.1-5.7-5.8-5.6-9.1C20.3 30.5 25.1 32.3 26 39z"></path><path fill="#ffe098" d="M44.1,30.2c-0.8,0.3-5.5,2.2-6.4,8.8l-2.3-0.7c-0.6-0.2-1.2-0.5-1.6-1c-1.1-1-2.8-0.9-3.9,0
			c-0.5,0.4-1,0.8-1.6,1L26,39c-1-6.7-5.8-8.6-6.5-8.8c0-1,0.1-1.6,0.1-1.6H44C44,28.6,44,29.2,44.1,30.2z"></path><path fill="#d17777" d="M37.4,32.8L33.6,34c-0.2,0.1-0.5,0.1-0.7,0L32,33.9c-0.1,0-0.3,0-0.4,0L30.8,34c-0.2,0-0.5,0-0.7,0
			l-3.9-1.2l3.9-1.2c0.2-0.1,0.5-0.1,0.7-0.1l0.8,0.1c0.1,0,0.3,0,0.4,0l0.8-0.1c0.2,0,0.5,0,0.7,0.1L37.4,32.8z"></path><path fill="#d2586a" d="M37.4,32.8c0,0-2.6,0.7-4.1,0.5c0,0-0.5-0.2-1.5-0.1c-1,0-1.5,0.1-1.5,0.1c-1.5,0.2-4.1-0.5-4.1-0.5
			s2.6-0.7,4.1-0.5c0,0,0.5,0.2,1.5,0.1c1,0.1,1.5-0.1,1.5-0.1C34.9,32.1,37.4,32.8,37.4,32.8z"></path><path fill="#020202" d="M46.2 13.7l-.1.7H32v-2.3C39.4 12.3 44.3 13.3 46.2 13.7zM46.4 11.6c-2.1-.5-7-1.3-14.4-1.5V9.7c.5 0 .9 0 1.4 0 7 .2 10.8 1.2 10.8 1.2.4-3.9-2-6.6-5.5-7.9-2.2-.8-4.5-1.1-6.7-.9V1c2.3 0 4.7.5 7 1.3C43.8 4.1 46.4 7.4 46.4 11.6z" opacity=".12"></path><path fill="#020202" d="M44.2 10.9c0 0-3.8-1-10.8-1.2-.5 0-1 0-1.4 0V2.1c2.2-.2 4.5.1 6.7.9C42.2 4.3 44.6 7 44.2 10.9zM48.3 17.8v6.9c0 1-.5 1.9-1.3 2.4-.3.2-.7.4-1 .5.8-.6 1.3-1.6 1.3-2.7v-5.5c0-1.1-.9-2-2-2H32v-.9h15C47.7 16.4 48.3 17 48.3 17.8z" opacity=".12"></path><path fill="#020202" d="M47.3,19.3v5.5c0,1.1-0.5,2-1.3,2.7c-0.2,0-0.4,0.1-0.6,0.1H32v-4.7h11.7c0.8,0,1.5-0.7,1.5-1.5
			c0-0.8-0.7-1.5-1.5-1.5H32v-2.6h13.3C46.4,17.3,47.3,18.2,47.3,19.3z" opacity=".12"></path><path fill="#020202" d="M45.1 21.4c0 .8-.7 1.5-1.5 1.5H32v-3h11.7C44.5 19.9 45.1 20.6 45.1 21.4zM46.6 29.4c-.2 3-1.1 6.1-2.4 8.5l-.1.1c-1.7 2.9-4.4 4.8-7.7 5.4-1.2.2-2.5.2-3.6.2H32v-7.1c.7 0 1.3.3 1.8.7.5.4 1 .8 1.6 1l2.3.7c.9-6.7 5.6-8.6 6.4-8.8 0-.2 0-.5 0-.6h1.4C45.8 29.6 46.2 29.5 46.6 29.4z" opacity=".12"></path><path fill="#020202" d="M44.1,30.2c-0.8,0.3-5.5,2.2-6.4,8.8l-2.3-0.7c-0.6-0.2-1.2-0.5-1.6-1c-0.5-0.4-1.1-0.7-1.8-0.7v-2.8
			c0,0,0,0,0,0l0.8,0.1c0.2,0,0.5,0,0.7,0l3.8-1.1c0,0,0,0,0.1,0c0,0,0,0,0,0s0,0,0,0c0,0,0,0-0.1,0l-3.8-1.1
			c-0.2-0.1-0.5-0.1-0.7,0L32,31.7h0v-2.1h12.1C44.1,29.8,44.1,30,44.1,30.2z" opacity=".12"></path><path fill="#020202" d="M37.3 32.7c-.5-.1-2.7-.6-4-.5 0 0-.4.1-1.3.1v-.7h0l.8-.1c.2 0 .5 0 .7 0L37.3 32.7zM37.3 32.8L33.6 34c-.2.1-.5.1-.7 0L32 33.9c0 0 0 0 0 0v-.7c.9 0 1.3.1 1.3.1C34.7 33.4 36.8 32.9 37.3 32.8z" opacity=".12"></path><path fill="#020202" d="M37.4,32.8C37.4,32.8,37.4,32.8,37.4,32.8c-0.1,0-0.1,0-0.1,0c-0.5,0.1-2.7,0.6-4,0.5c0,0-0.4-0.1-1.3-0.1
			v-0.8c0.9,0,1.3-0.1,1.3-0.1c1.3-0.1,3.5,0.4,4,0.5C37.3,32.8,37.4,32.8,37.4,32.8C37.4,32.8,37.4,32.8,37.4,32.8z" opacity=".12"></path><path fill="#353535" d="M45.4,28.6H18.3c-0.8,0-1.6-0.3-2.2-0.7c0,2.3,0.4,4.7,1.1,7c0.5,1.5,1.1,3,2,4.3c1.7,2.6,4.1,4.6,7.3,5.3
			c1.7,0.4,3.4,0.3,5.1,0.3c1.7,0,3.3,0,5-0.3c3.6-0.7,6.5-2.7,8.4-5.9c0,0,0.1-0.1,0.1-0.2c1.7-3.1,2.6-7,2.6-10.5
			C47,28.3,46.2,28.6,45.4,28.6z M44.1,37.9l-0.1,0.1c-1.7,2.9-4.4,4.8-7.7,5.4c-1.2,0.2-2.5,0.2-3.6,0.2h-1.2l-1.8,0
			c-1,0-2.1,0-3.1-0.3c-2.8-0.6-5-2.3-6.7-4.9c-0.8-1.2-1.4-2.6-1.8-4c-0.5-1.7-0.9-3.4-1-5.1c0.4,0.1,0.8,0.1,1.2,0.1h27.2
			c0.4,0,0.8-0.1,1.2-0.1C46.4,32.5,45.5,35.5,44.1,37.9z"></path><path fill="#676767" d="M47 15.4H16.7c-1.3 0-2.4 1.1-2.4 2.4v6.9c0 1.3.7 2.5 1.7 3.2.6.4 1.4.7 2.2.7h27.1c.8 0 1.6-.3 2.2-.7 1-.7 1.7-1.9 1.7-3.2v-6.9C49.3 16.5 48.3 15.4 47 15.4zM48.3 24.6c0 1-.5 1.9-1.3 2.4-.5.3-1.1.5-1.7.5H18.3c-.6 0-1.2-.2-1.7-.5-.8-.5-1.3-1.5-1.3-2.4v-6.9c0-.8.6-1.4 1.4-1.4H47c.8 0 1.4.6 1.4 1.4V24.6zM39.3 1.4c-4.9-1.8-9.9-1.9-14.9-.2-4.9 1.6-8.9 5.1-8.7 10.7 0 .4 0 .7.1 1.1 0 0 .3-.1.8-.2 1.9-.4 7-1.4 15-1.6 10.1.3 15.7 1.8 15.7 1.8C47.9 7.2 44.4 3.3 39.3 1.4zM31.6 10.1c-7.6.2-12.7 1.1-14.9 1.5-.1-6.2 5.6-8.7 8-9.5C27.1 1.4 29.4 1 31.6 1c2.5 0 4.9.4 7.4 1.3 4.8 1.7 7.4 5.1 7.4 9.3C44.2 11.2 39.2 10.3 31.6 10.1z"></path></svg>